<svg width="0" height="0" class="hidden">
  <symbol version="1.0" xmlns="http://www.w3.org/2000/svg" viewBox="0 0 512 512" id="instagram">
    <path d="M168.5 1.1c-13.7.4-29.5 1.2-35 1.9-40.4 4.8-69.1 18.1-92.6 42.7C15.2 72.7 4.3 103.6 1 158-.3 179.7-.3 328.8 1 351.6c3.2 56.4 14.2 87.6 40.3 115.1 23.3 24.5 53.6 37.8 97.7 42.9 29 3.4 206.3 2.9 237.5-.6 40.7-4.6 68.1-16.5 91.8-39.8 22.1-21.8 35.3-50.7 40.2-88.2 4.6-34.6 4.6-215.4 0-250.2C500 65.9 466.6 25.1 409.1 8.9c-17.3-4.8-34.5-6.8-68.8-7.9-34.5-1.1-133.6-1.1-171.8.1zm184 46c70.6 4.7 101.4 28.9 109.9 86.2 2.8 18.3 3.9 66.8 3.3 144.7-.5 72.1-1 83.8-4.3 104.5-7.1 44.7-33.6 71.4-78.4 78.9-18.5 3.1-32.2 3.7-95.5 4.2-95.9.9-145.7-1-168.1-6.2-36.1-8.3-59-31.2-68.5-68.3-5.2-20.3-5.4-25.2-5.4-133.1 0-90.7.2-101.9 1.8-114.8 5.6-44.9 19.9-69.7 48.2-83.7 10.1-5 26.4-9.6 41.5-11.6 18.6-2.4 182.2-3.1 215.5-.8z"></path>
    <path d="M382.7 90.4c-21.4 7.7-27.6 34.5-11.6 50.5 6.4 6.3 12 8.6 21.4 8.6 6.7 0 8.9-.4 13.7-2.8 10.1-5 15.8-13.7 16.6-25.3.7-10.3-1.6-16.3-8.7-23.5-3.8-3.8-7.2-6.1-10.5-7.2-5.9-2-15.6-2.1-20.9-.3zM233 126.6c-25 4.5-48.5 16.5-67 34.1-19.1 18.2-31.2 39-37.7 65-2.5 9.7-2.7 12.6-2.8 29.3 0 25.2 3.1 39.6 13.1 59.4 19.6 39 56.7 65.5 100.3 71.7 12.8 1.8 35.2.6 47.8-2.5 38.5-9.6 69.2-34.1 87.1-69.6 9-17.8 13.2-36.6 13.2-58.6 0-34.8-12.4-65.3-36.7-90.5-19.8-20.4-44.5-33.6-71.7-38.4-10.9-1.9-35-1.8-45.6.1zm40.4 45.9c16.5 3.4 30.2 10.9 42.7 23.4 15.8 15.8 23.7 33.6 24.7 55.7.5 14.1-.6 22-4.9 34-9.9 27.3-34.4 48-63.8 54-6.4 1.2-11.3 1.5-20 1.1-14.1-.7-20.6-2.4-33.6-8.7-21.6-10.4-37.8-29.8-44.6-53.2-3-10.5-3.7-27.9-1.5-38.9 6.9-33.8 32.6-60 66.1-67.4 8.2-1.8 26-1.8 34.9 0z"></path>
  </symbol>
  <symbol version="1.0" xmlns="http://www.w3.org/2000/svg" viewBox="0 0 512 512" id="linkedin">
    <path d="M45.2 2C34.3 4.9 26.5 9.4 18 18 9.3 26.6 4.9 34.3 2 45.6 0 53.2 0 57.4 0 256s0 202.8 2 210.4c2.9 11.3 7.3 19 16 27.6 8.6 8.7 16.3 13.1 27.6 16 7.6 2 11.8 2 210.4 2s202.8 0 210.4-2c11.3-2.9 19-7.3 27.6-16 8.7-8.6 13.1-16.3 16-27.6 2-7.6 2-11.8 2-210.4s0-202.8-2-210.4c-2.9-11.3-7.3-19-16-27.6-8.6-8.7-16.3-13.1-27.6-16-7.6-2-11.7-2-210.8-1.9C58.9.1 52.3.2 45.2 2zm417.1 40.9c2.1 1.3 5 4.2 6.5 6.4l2.7 4.1v405.1l-2.4 3.8c-1.3 2.1-4.2 5-6.4 6.5l-4.1 2.7H53.4l-4.1-2.7c-2.2-1.5-5.1-4.4-6.4-6.5l-2.4-3.8-.3-200.4c-.1-139 .1-201.5.8-204.3 1.3-4.7 7.7-11.4 12.2-12.7 2.1-.6 79.3-.9 204.3-.8l201 .2 3.8 2.4z"></path>
    <path d="M115.2 85.5c-7.4 2.1-13.1 5.6-18.9 11.8-9 9.5-12.7 21.7-10.6 34.2 1.5 8.6 4.6 14.9 10.6 21.2 9 9.5 20.3 14 32.7 13 10-.8 17.2-4 24.4-10.7 13.8-13 17.4-32.1 9-48.7-3.8-7.5-13.6-16.5-21.1-19.3-7.5-2.8-19-3.5-26.1-1.5zM324 194.1c-19.4 2.8-39.2 14.3-48.5 28.2l-3.5 5.2V197h-68v226h67.9l.4-65.3c.4-70.9.4-70.7 6.2-83.1 7.2-15.2 21.3-22.6 40.6-21.3 13.6.9 22.7 6.8 27.9 18.2 5.2 11.2 5.3 12.3 5.7 84.2l.4 67.3h69l-.4-76.8c-.3-49.9-.9-79-1.6-83.2-7.5-43.8-25.9-63.4-64.6-69-8.1-1.1-23.6-1.1-31.5.1zM90 310v113h70V197H90v113z"></path>
  </symbol>
  <symbol version="1.0" xmlns="http://www.w3.org/2000/svg" viewBox="0 0 512 512" id="magnifying-glass">
    <path d="M169.5 2C87.9 15.2 24.9 73.3 5.1 153.5c-5.2 21.3-6.7 52.5-3.5 74.2 6.8 45.8 26.1 84.5 57.9 115.7 61.4 60.3 154.9 74.6 231.8 35.5 5.4-2.8 12.5-6.7 15.9-8.9 6.1-3.8 7.8-4.2 7.8-1.6 0 .7 1.3 3.9 3 7.2 2.5 5 12.2 15.2 65.2 68 58.2 58 62.7 62.3 68.8 65 7.6 3.4 21 4.5 28.8 2.4 13.9-3.7 26.5-16.3 30.2-30.2 2.1-7.8.9-21.1-2.5-28.8-2.7-6.1-6.7-10.4-64.4-68.3-61.5-61.7-67-66.7-75-68.3-1.7-.4-3.1-.9-3.1-1.2 0-.2 1.4-2.8 3.2-5.6 37.2-59.5 41.8-133 12.2-194.6C351.7 52.2 296.5 11.7 227.7 1.6c-14.7-2.2-43.5-2-58.2.4zm42.3 50c36.7 3.3 67.5 17.5 93.2 42.9 50.6 50.2 58.5 128.5 19 187.8-38.6 57.9-112.4 81.4-176.9 56.4-74-28.7-112.4-108.7-88.4-184.6 14.1-44.6 51.2-81.7 95.9-95.8 13.2-4.2 26.1-6.4 43.9-7.6 1.1 0 7.1.4 13.3.9z"></path>
  </symbol>
  <symbol version="1.0" xmlns="http://www.w3.org/2000/svg" viewBox="0 0 512 512" id="phone-call">
    <path d="M86.5 1.5C75.2 5 72.3 7.4 41.9 37.9c-28 28-29.9 30-33.7 37.8-2.2 4.5-4.9 11.7-5.9 16-2.4 10.7-2.5 33.2 0 46.8C15 208.1 65.6 290.7 143 368.1c78.2 78.3 161.4 129.7 229.5 142 10.1 1.8 14.5 2 27.5 1.6 17.3-.6 23.3-1.8 35-7.4 7-3.4 9.7-5.8 37.6-33.7 26.3-26.3 30.5-30.9 33.3-36.6 7.5-15.4 7.7-31.8.7-46.6-3.5-7.4-5.4-9.5-41.4-45.7-20.7-20.8-40.3-39.8-43.5-42.2-8.6-6.5-15.2-8.8-27.7-9.3-12.2-.5-19.6 1.5-28.7 7.5-9 5.9-12.8 11.1-18.9 25.3-3.8 8.7-8.2 14.7-14.3 19.3-14.4 11-29.9 13.5-47.1 7.7-43.8-14.6-95.4-62.1-117.4-108-5.4-11.4-10.6-28.3-10.6-34.4.2-15.7 12.5-33.9 27.7-40.7 15.8-7.2 18.1-8.5 23.4-13.8 11.6-11.6 16.5-29.7 12.4-45.6-3.4-13.1-5.4-15.5-45-55.4C132 8.2 129 5.7 114.8 1.6c-6.7-1.9-22.4-2-28.3-.1z"></path>
  </symbol>
  <symbol version="1.0" xmlns="http://www.w3.org/2000/svg" viewBox="0 0 512 512" id="twitter">
    <path d="M333.5 49.6c-31.9 7.1-57.2 26.1-72.3 54.4-10.4 19.4-14.4 45.7-10.6 68.2l.7 3.8h-3.9c-2.2 0-9.6-.7-16.4-1.5-65-8-124.5-36.6-171.3-82.4-6.5-6.3-14.3-14.6-17.4-18.3-3.2-3.7-6.1-6.8-6.5-6.8-2.6 0-11 22.3-13.2 34.9-6.8 39.6 8.5 78.2 40.8 102.9l2.9 2.2-4.9-.6C48.7 205 34.7 200.9 25 196c-2.2-1.1-4.2-2-4.6-2-.4 0-.4 4-.1 8.8 2.2 31.2 17.4 59 42.2 77.5 9.6 7.2 19.2 12.1 30.4 15.8l8.4 2.7-5.8 1.2c-6.8 1.4-27 1.8-33.7.7-3.4-.6-4.8-.5-4.8.3 0 2.9 6.8 17.1 12.2 25.2 17.1 26.1 46.3 44 77 47.3l6.8.7-4.5 3.5c-19.5 14.8-49.6 28.5-77 34.8-17.7 4.1-46.9 6.3-62.7 4.8-4.9-.5-8.8-.6-8.8-.2 0 .4 5.1 3.6 11.3 7.2 38.1 22 75.5 34 121.5 38.8 14.2 1.5 58.9.6 72.2-1.4 57.5-8.9 103-28.4 144.1-61.9 68.2-55.5 110.8-145 110.9-233v-14.6l8.9-7.1c11.3-9.1 29.1-27.6 37.1-38.6 3.4-4.7 6-8.8 5.7-9.1-.2-.3-3.8.8-7.8 2.4-8.2 3.3-21.7 7.5-29.4 9.2-8.7 2-19.7 3.8-18.8 3.1.4-.4 3.4-2.6 6.5-5 7.3-5.5 18.2-17 23.1-24.4 4.2-6.2 11.1-20.4 12.2-24.9.7-2.7.4-2.6-12.7 4-13.2 6.7-31.3 13.4-46 17l-7.6 2-4.4-4.5c-9.8-10-29.7-21.1-45.3-25.3-10.9-2.9-37.6-3.7-48-1.4z"></path>
  </symbol>
  <symbol version="1.0" xmlns="http://www.w3.org/2000/svg" viewBox="0 0 512 512" id="arrow-down">
    <path d="M24.5 111.3c-9 3-17.1 10.2-21.6 19.2C.8 134.8.5 136.9.5 146c0 9.6.2 11 2.8 16 2.4 4.5 24.2 26.8 116.5 119.2 94.4 94.5 114.7 114.3 119.7 117 5.7 3.1 6.5 3.3 16.5 3.3s10.8-.2 16.5-3.3c5.1-2.7 25.2-22.4 120.1-117.5 90.5-90.6 114.5-115.2 116.5-119.2 2.1-4.3 2.4-6.4 2.4-15.5 0-9.6-.3-11-2.9-16.2-3.5-6.9-9.3-12.7-16.6-16.5-5-2.5-6.5-2.8-15.5-2.8-17.5 0-7.5-8.7-120.7 104.4L256 314.5l-99.7-99.6C44.2 103.1 53.1 110.8 37 110.3c-5-.1-10.1.3-12.5 1z"></path>
  </symbol>
  <symbol version="1.0" xmlns="http://www.w3.org/2000/svg" viewBox="0 0 512 512" id="email">
    <path d="M30.3 63C16.9 67.8 6.6 78.2 1.9 91.8.1 97.1 0 102.3 0 256s.1 158.9 1.9 164.2C6.6 434 17 444.4 30.7 449.1 36.2 451 41 451 256 451c213.7 0 219.8-.1 225.2-1.9 13.8-4.7 24.2-15.1 28.9-28.8 1.8-5.5 1.9-9.7 1.9-164.3 0-154.6-.1-158.8-1.9-164.3-4.7-13.7-15.1-24.1-28.9-28.8-5.4-1.8-11.4-1.9-225.6-1.8-211.9 0-220.3.1-225.3 1.9zm328 129.2L257.1 293.4l-4.3-3.7c-2.4-2-48.4-47.6-102.3-101.2l-98-97.4L256 91h203.5L358.3 192.2zm-185.5 62.7c.1.3-32 32.8-71.3 72.1L30 398.5V112.8l71.3 70.7c39.1 38.9 71.3 71.1 71.5 71.4zm309.2 1.3v142.3l-71.2-71.2-71.3-71.3 71-71c39-39 71.1-71 71.2-71 .2 0 .3 64 .3 142.2zm-262 45.4c28.6 28.7 29.4 29.4 36.9 29.4 3.6 0 6.6-.6 8.1-1.6 1.4-.9 13.6-12.7 27.3-26.3l24.7-24.6 71.3 71.3 71.2 71.2h-407l71.5-71.5c39.3-39.3 71.7-71.5 72-71.5.3 0 11.1 10.6 24 23.6z"></path>
  </symbol>
  <symbol version="1.0" xmlns="http://www.w3.org/2000/svg" viewBox="0 0 512 512" id="facebook">
    <path d="M45.3 1.9C23.6 8.2 7.2 24.9 1.6 46.7.1 52.3 0 72.7.2 258.2l.3 205.3 2.6 7.2c6.7 18.1 20.5 31.9 38.9 38.5l6.5 2.3H268l3.7-3.8 3.8-3.7.3-97.8.2-97.9-2.3-3.4c-4.4-6.6-5.8-6.9-37.9-6.9H207v-42h28.8c31.9 0 33.3-.3 37.9-6.9 2-3 2.1-4.2 2.6-40.9.4-41.4.7-43.3 7-56.2 4.4-9 16.8-21.4 26-25.8 12.1-5.8 15-6.2 48.4-6.2H388v42h-28.9c-28.3 0-28.9 0-32.2 2.3-1.8 1.2-4.4 3.8-5.6 5.6-2.3 3.4-2.3 3.6-2.3 39.6 0 49.9-2.9 46.5 40.2 46.5H388v42h-28.7c-32.2 0-33.6.3-38 6.9l-2.3 3.4v194.8l3.9 4.2 4 4.2h136.6l7.2-2.6c18.1-6.7 31.9-20.5 38.5-38.9l2.3-6.5v-415l-2.6-7.2C502.2 23.2 488.4 9.4 470 2.8L463.5.5l-206-.2C63.3.1 51.1.2 45.3 1.9zm415.4 31.2c7.8 2.9 15.3 10.4 18.2 18.2l2.1 5.8v397.8l-2.1 5.8c-2.9 7.8-10.4 15.3-18.2 18.2-5.6 2-7.1 2.1-58.2 2.1H350V329.1l29.9-.3c42.6-.4 39.1 4.2 39.1-51.8 0-45.2 0-45.1-6.9-49.7-3.3-2.3-3.9-2.3-32.7-2.3H350v-32h28.2c26.1 0 28.5-.1 32.3-2 2.6-1.3 4.9-3.4 6.3-5.9 2.2-3.8 2.2-4.6 2.2-44.8 0-40.9 0-41-2.2-44.3-1.3-1.8-3.6-4.3-5.1-5.4-2.7-2-4.2-2.1-38-2.4-40.4-.4-52.7.5-66.1 4.8-30 9.7-53 35-60.2 66.5-1.2 5.2-1.7 14.5-2.1 36.2l-.5 29.3h-29.3c-42.7 0-39.5-4.2-39.5 52 0 44.6 0 44.8 6.3 49.4 2.7 2 4.3 2.1 32.8 2.4l29.9.3V481h-94c-93.5 0-94 0-99.7-2.1-7.8-2.9-15.3-10.4-18.2-18.2l-2.1-5.8V57.1l2.2-5.8c2.9-7.8 9.5-14.6 17.3-17.8l6-2.5h398.4l5.8 2.1z"></path>
  </symbol>
</svg>