<svg width="0" height="0" class="hidden">
  <symbol version="1.0" xmlns="http://www.w3.org/2000/svg" viewBox="0 0 512 512" id="magnifying-glass">
    <path d="M169.5 2C87.9 15.2 24.9 73.3 5.1 153.5c-5.2 21.3-6.7 52.5-3.5 74.2 6.8 45.8 26.1 84.5 57.9 115.7 61.4 60.3 154.9 74.6 231.8 35.5 5.4-2.8 12.5-6.7 15.9-8.9 6.1-3.8 7.8-4.2 7.8-1.6 0 .7 1.3 3.9 3 7.2 2.5 5 12.2 15.2 65.2 68 58.2 58 62.7 62.3 68.8 65 7.6 3.4 21 4.5 28.8 2.4 13.9-3.7 26.5-16.3 30.2-30.2 2.1-7.8.9-21.1-2.5-28.8-2.7-6.1-6.7-10.4-64.4-68.3-61.5-61.7-67-66.7-75-68.3-1.7-.4-3.1-.9-3.1-1.2 0-.2 1.4-2.8 3.2-5.6 37.2-59.5 41.8-133 12.2-194.6C351.7 52.2 296.5 11.7 227.7 1.6c-14.7-2.2-43.5-2-58.2.4zm42.3 50c36.7 3.3 67.5 17.5 93.2 42.9 50.6 50.2 58.5 128.5 19 187.8-38.6 57.9-112.4 81.4-176.9 56.4-74-28.7-112.4-108.7-88.4-184.6 14.1-44.6 51.2-81.7 95.9-95.8 13.2-4.2 26.1-6.4 43.9-7.6 1.1 0 7.1.4 13.3.9z"></path>
  </symbol>
  <symbol version="1.0" xmlns="http://www.w3.org/2000/svg" viewBox="0 0 512 512" id="menu">
    <path d="M14.2 28.6C-1.9 36.6-4.7 58 8.8 70.2 16.3 77-3 76.5 256 76.5s239.7.5 247.2-6.3c13.5-12.2 10.7-33.6-5.4-41.6l-5.2-2.6H19.4l-5.2 2.6zm6.5 202.5c-15 2.9-24.2 18.7-19.2 33 3.3 9.2 10.2 15 20 16.8 8.2 1.5 460.8 1.5 469 0 15.9-2.9 25.2-18.2 20-33-3.3-9.2-10.2-15-20-16.8-7.5-1.4-462.6-1.3-469.8 0zm.8 204.6c-5.9 1.3-9.1 2.9-12.7 6.1-13.5 12.2-10.7 33.6 5.4 41.6l5.2 2.6h473.2l5.2-2.6c19.2-9.5 18.4-37.2-1.3-46.1-3.8-1.7-15-1.8-238.5-1.9-129-.1-235.4 0-236.5.3z"></path>
  </symbol>
  <symbol version="1.0" xmlns="http://www.w3.org/2000/svg" viewBox="0 0 512 512" id="phone-call">
    <path d="M86.5 1.5C75.2 5 72.3 7.4 41.9 37.9c-28 28-29.9 30-33.7 37.8-2.2 4.5-4.9 11.7-5.9 16-2.4 10.7-2.5 33.2 0 46.8C15 208.1 65.6 290.7 143 368.1c78.2 78.3 161.4 129.7 229.5 142 10.1 1.8 14.5 2 27.5 1.6 17.3-.6 23.3-1.8 35-7.4 7-3.4 9.7-5.8 37.6-33.7 26.3-26.3 30.5-30.9 33.3-36.6 7.5-15.4 7.7-31.8.7-46.6-3.5-7.4-5.4-9.5-41.4-45.7-20.7-20.8-40.3-39.8-43.5-42.2-8.6-6.5-15.2-8.8-27.7-9.3-12.2-.5-19.6 1.5-28.7 7.5-9 5.9-12.8 11.1-18.9 25.3-3.8 8.7-8.2 14.7-14.3 19.3-14.4 11-29.9 13.5-47.1 7.7-43.8-14.6-95.4-62.1-117.4-108-5.4-11.4-10.6-28.3-10.6-34.4.2-15.7 12.5-33.9 27.7-40.7 15.8-7.2 18.1-8.5 23.4-13.8 11.6-11.6 16.5-29.7 12.4-45.6-3.4-13.1-5.4-15.5-45-55.4C132 8.2 129 5.7 114.8 1.6c-6.7-1.9-22.4-2-28.3-.1z"></path>
  </symbol>
  <symbol version="1.0" xmlns="http://www.w3.org/2000/svg" viewBox="0 0 512 512" id="twitter">
    <path d="M473 35.4c-3 1.3-15.8 7.5-28.5 13.8-12.6 6.3-25.8 12.8-29.2 14.3l-6.3 2.8-6.9-3.1c-39-17.4-87.2-8.6-118.4 21.7-24.5 23.7-37.7 54.2-39.4 90.9l-.6 13.3-4.6-.6C167.4 179 107.7 138.3 71.3 74c-4.8-8.3-8.2-11.2-14.2-11.8-6.4-.6-10.3 1-14.1 5.8-4.3 5.4-10.7 17.7-13.5 26-2.8 8.2-5.5 24.9-5.5 33.6.1 12.6 4.2 31.7 9.4 43.1 1.5 3.1 2.4 5.8 2.2 6-.2.3-4.3-.7-8.9-2.1-10.1-3.1-14-3.2-18.7-.7-3.7 1.9-8 8.8-8 12.7 0 1.3.9 6.3 2 11.1 8.7 37.1 30.2 65.7 63.7 84.8l7.5 4.3-5.3 1.5c-3 .9-7.4 2.1-9.8 2.7-6 1.6-8.3 3.3-10.9 7.9-5.3 9.5-1.6 16.5 16.7 31 20.3 16.1 44.8 28.4 72.9 36.5 6.2 1.8 11.3 3.6 11.3 4 0 1.3-11 8.5-20 13.1-11 5.6-24.2 9.9-38.5 12.6-9 1.7-16.2 2.2-38.1 2.6-30.8.5-33.9 1-38 7.1-3 4.4-3.3 10.7-.9 15.8 1.8 3.8 10.5 11 20.1 16.8 26.2 15.7 80.3 31.5 126.8 37 67 8 130.4.7 179.5-20.7 27.9-12.2 48.8-26.6 70.7-48.8 43.3-44.2 68.5-93.9 78-153.9 2.5-16.1 2.5-56-.1-74.8l-1.8-13.2 12.3-19.6c6.7-10.8 12.6-21.1 13.2-22.9 2.2-7.2-1.8-14.9-9.4-17.9-3.5-1.4-5.5-1.5-14.1-.6-5.5.5-11.8 1-13.9 1H470l12.5-25c6.8-13.7 12.7-26.6 13-28.7.9-5.7-2.7-12.2-8.5-15.1-5.5-2.7-7.1-2.7-14 .2zm-27 48.1c0 .2-3.8 8.1-8.5 17.6-9.1 18.4-9.9 21.6-6.7 27.9.9 1.9 3.2 4.5 5.1 5.7 3.7 2.5 9.7 2.9 23.9 1.4 3.9-.4 7.2-.5 7.2-.2s-2.6 4.7-5.7 10c-5.5 9-5.8 9.8-5.8 16 0 3.6.9 13.3 1.9 21.6 2.2 17.1 2.5 44.5.7 59-6.7 53.3-29.3 99.4-68.8 140.6-22.2 23.1-47.5 39.2-78.4 49.8-59.8 20.4-142.8 20-213.9-1.3-6.3-1.9-10.8-3.6-10-3.9.8-.3 4.9-1.1 9-1.7 19.7-3.1 43.4-12.3 60.2-23.2 15.5-10.2 37.5-30.1 39.8-36.3 2.7-7-.1-14.9-6.7-18.7-1.7-1.1-8.3-2.8-14.7-3.9-21.8-3.7-43.3-10.3-61.1-18.8-9.4-4.5-21.5-11.6-21.5-12.6 0-.3 2.9-1.8 6.5-3.4 10.9-5 23.5-13.1 25.6-16.5 2.5-4.1 2.5-12.1 0-15.9-2.7-4.2-5-5.4-16.8-9.3-24.3-8.1-39.7-17.6-53.7-33.2-6.2-7-15.6-21.2-15.6-23.7 0-.6 5.4-1 14.8-1 9.3 0 16-.5 18.3-1.3 7.4-2.6 11.9-10.7 10-18-.6-2.2-3.8-7.2-7.1-11.3-6.8-8.3-14-22.1-16.7-31.9-2.1-7.6-2.6-34.1-.7-36 .8-.8 2.9 1.3 7.6 7.7 44.2 59.5 110.5 95.7 186.1 101.4 13.7 1 14.1 1 18.5-1.3 6.4-3.3 8.5-7.5 7.8-15.8-2.4-28.2-1.7-40.1 3.1-55.5 12.6-39.9 45.1-64.1 83.7-62.2 13.1.6 21.3 2.9 33.6 9.4 11.1 5.8 12.5 5.7 32.1-4 15.1-7.4 16.9-8.2 16.9-7.2z"></path>
  </symbol>
  <symbol version="1.0" xmlns="http://www.w3.org/2000/svg" viewBox="0 0 512 512" id="arrow-down-sign-to-navigate">
    <path d="M24.5 111.3c-9 3-17.1 10.2-21.6 19.2C.8 134.8.5 136.9.5 146c0 9.6.2 11 2.8 16 2.4 4.5 24.2 26.8 116.5 119.2 94.4 94.5 114.7 114.3 119.7 117 5.7 3.1 6.5 3.3 16.5 3.3s10.8-.2 16.5-3.3c5.1-2.7 25.2-22.4 120.1-117.5 90.5-90.6 114.5-115.2 116.5-119.2 2.1-4.3 2.4-6.4 2.4-15.5 0-9.6-.3-11-2.9-16.2-3.5-6.9-9.3-12.7-16.6-16.5-5-2.5-6.5-2.8-15.5-2.8-17.5 0-7.5-8.7-120.7 104.4L256 314.5l-99.7-99.6C44.2 103.1 53.1 110.8 37 110.3c-5-.1-10.1.3-12.5 1z"></path>
  </symbol>
  <symbol version="1.0" xmlns="http://www.w3.org/2000/svg" viewBox="0 0 512 512" id="email">
    <path d="M30.3 63C16.9 67.8 6.6 78.2 1.9 91.8.1 97.1 0 102.3 0 256s.1 158.9 1.9 164.2C6.6 434 17 444.4 30.7 449.1 36.2 451 41 451 256 451c213.7 0 219.8-.1 225.2-1.9 13.8-4.7 24.2-15.1 28.9-28.8 1.8-5.5 1.9-9.7 1.9-164.3 0-154.6-.1-158.8-1.9-164.3-4.7-13.7-15.1-24.1-28.9-28.8-5.4-1.8-11.4-1.9-225.6-1.8-211.9 0-220.3.1-225.3 1.9zm328 129.2L257.1 293.4l-4.3-3.7c-2.4-2-48.4-47.6-102.3-101.2l-98-97.4L256 91h203.5L358.3 192.2zm-185.5 62.7c.1.3-32 32.8-71.3 72.1L30 398.5V112.8l71.3 70.7c39.1 38.9 71.3 71.1 71.5 71.4zm309.2 1.3v142.3l-71.2-71.2-71.3-71.3 71-71c39-39 71.1-71 71.2-71 .2 0 .3 64 .3 142.2zm-262 45.4c28.6 28.7 29.4 29.4 36.9 29.4 3.6 0 6.6-.6 8.1-1.6 1.4-.9 13.6-12.7 27.3-26.3l24.7-24.6 71.3 71.3 71.2 71.2h-407l71.5-71.5c39.3-39.3 71.7-71.5 72-71.5.3 0 11.1 10.6 24 23.6z"></path>
  </symbol>
  <symbol version="1.0" xmlns="http://www.w3.org/2000/svg" viewBox="0 0 512 512" id="facebook">
    <path d="M45.3 1.9C23.6 8.2 7.2 24.9 1.6 46.7.1 52.3 0 72.7.2 258.2l.3 205.3 2.6 7.2c6.7 18.1 20.5 31.9 38.9 38.5l6.5 2.3H268l3.7-3.8 3.8-3.7.3-97.8.2-97.9-2.3-3.4c-4.4-6.6-5.8-6.9-37.9-6.9H207v-42h28.8c31.9 0 33.3-.3 37.9-6.9 2-3 2.1-4.2 2.6-40.9.4-41.4.7-43.3 7-56.2 4.4-9 16.8-21.4 26-25.8 12.1-5.8 15-6.2 48.4-6.2H388v42h-28.9c-28.3 0-28.9 0-32.2 2.3-1.8 1.2-4.4 3.8-5.6 5.6-2.3 3.4-2.3 3.6-2.3 39.6 0 49.9-2.9 46.5 40.2 46.5H388v42h-28.7c-32.2 0-33.6.3-38 6.9l-2.3 3.4v194.8l3.9 4.2 4 4.2h136.6l7.2-2.6c18.1-6.7 31.9-20.5 38.5-38.9l2.3-6.5v-415l-2.6-7.2C502.2 23.2 488.4 9.4 470 2.8L463.5.5l-206-.2C63.3.1 51.1.2 45.3 1.9zm415.4 31.2c7.8 2.9 15.3 10.4 18.2 18.2l2.1 5.8v397.8l-2.1 5.8c-2.9 7.8-10.4 15.3-18.2 18.2-5.6 2-7.1 2.1-58.2 2.1H350V329.1l29.9-.3c42.6-.4 39.1 4.2 39.1-51.8 0-45.2 0-45.1-6.9-49.7-3.3-2.3-3.9-2.3-32.7-2.3H350v-32h28.2c26.1 0 28.5-.1 32.3-2 2.6-1.3 4.9-3.4 6.3-5.9 2.2-3.8 2.2-4.6 2.2-44.8 0-40.9 0-41-2.2-44.3-1.3-1.8-3.6-4.3-5.1-5.4-2.7-2-4.2-2.1-38-2.4-40.4-.4-52.7.5-66.1 4.8-30 9.7-53 35-60.2 66.5-1.2 5.2-1.7 14.5-2.1 36.2l-.5 29.3h-29.3c-42.7 0-39.5-4.2-39.5 52 0 44.6 0 44.8 6.3 49.4 2.7 2 4.3 2.1 32.8 2.4l29.9.3V481h-94c-93.5 0-94 0-99.7-2.1-7.8-2.9-15.3-10.4-18.2-18.2l-2.1-5.8V57.1l2.2-5.8c2.9-7.8 9.5-14.6 17.3-17.8l6-2.5h398.4l5.8 2.1z"></path>
  </symbol>
  <symbol version="1.0" xmlns="http://www.w3.org/2000/svg" viewBox="0 0 512 512" id="instagram">
    <path d="M160.9 1c-33 1.4-55.6 5.6-74.7 13.8-17.9 7.7-28.5 14.8-41.7 27.9C26.7 60.4 15.6 80.3 8.6 107 2.4 130.6 1 157.7 1 256c0 96.7 1.3 124.1 7.1 147.7 14.4 58.7 57.4 96.1 120.7 104.8 18.1 2.4 56.1 3.5 128.7 3.5 67.5 0 106.4-1 123.9-3.1 35.8-4.2 63.8-16.6 85.9-37.8 24.9-24 38.1-52.7 42.9-93.6 1.9-16 1.9-229.4 0-244.5-3.9-30.6-13-55.8-27.4-75.1-7.1-9.6-22.3-24.1-31.8-30.6-21.5-14.5-47.4-22.5-81.5-25.4C353.4.6 188.2-.1 160.9 1zm216.3 48.3c28.5 4.2 44.5 11.3 59.9 26.6 10 10 15.5 18.8 20.4 32.4 8.2 23 9 35.2 9 148.2 0 65.1-.4 96.4-1.3 106.9-2.9 34.7-9.8 53.4-26 70.7-16.9 18-38 26.9-70.7 29.9-17.7 1.7-164 2.5-197.7 1.1-15.2-.6-31.1-1.6-35.4-2.2-18.9-2.6-37.2-9.3-48.6-17.6-7.1-5.3-18.5-17.7-22.7-24.7-8.4-14-13.4-33.7-15.1-58.7-3-45.4-2-201.2 1.4-227C54 108.2 62.3 90.2 78 75c17.2-16.7 39.8-24.8 74.8-27 7.6-.4 58.7-.7 113.7-.5 85.3.2 101.6.4 110.7 1.8z"></path>
    <path d="M380.2 92c-11.3 5.7-16.7 14.5-16.7 27.5 0 9.4 2.2 15 8.6 21.4 6.4 6.3 12 8.6 21.4 8.6 6.7 0 8.9-.4 13.7-2.8 10.1-5 15.8-13.7 16.6-25.3.7-10.3-1.6-16.3-8.7-23.5-6.6-6.6-12.4-8.9-22.1-8.9-5.4 0-7.8.6-12.8 3zm-146.6 34.6c-26.3 4.8-49.6 17.1-69.2 36.8-26 25.9-38.5 56.2-38.5 92.6 0 22 4.1 40.1 13.2 58.3 28 55.6 89.6 84.1 149.5 69.2 23.6-5.9 41.8-16.1 59.5-33.2 15.9-15.4 26.6-32.2 33.3-52.3 4.8-14.5 6.6-25.7 6.6-42 0-16.2-1.8-27.5-6.5-41.7-6.4-19.2-15.7-34.4-30.2-49.4-19.8-20.4-44.5-33.6-71.7-38.4-11.1-1.9-35.2-1.9-46 .1zm39.6 45.8c45.8 8.8 76.2 53.8 67.4 99.9-5.4 27.9-25.9 52.7-52.1 62.8-12.8 5-20.2 6.2-35 5.6-10.5-.4-14.6-1-21.5-3.2-30.3-9.6-52.4-34.1-58.6-64.9-2.4-11.9-1.5-30.4 2.1-41.6 9.4-29.8 34.5-52.5 64.4-58.5 8.9-1.8 24.3-1.8 33.3-.1z"></path>
  </symbol>
  <symbol version="1.0" xmlns="http://www.w3.org/2000/svg" viewBox="0 0 512 512" id="linkedin">
    <path d="M45.2 2C34.3 4.9 26.5 9.4 18 18 9.3 26.6 4.9 34.3 2 45.6 0 53.2 0 57.4 0 256s0 202.8 2 210.4c2.9 11.3 7.3 19 16 27.6 8.6 8.7 16.3 13.1 27.6 16 7.6 2 11.8 2 210.4 2s202.8 0 210.4-2c11.3-2.9 19-7.3 27.6-16 8.7-8.6 13.1-16.3 16-27.6 2-7.6 2-11.8 2-210.4s0-202.8-2-210.4c-2.9-11.3-7.3-19-16-27.6-8.6-8.7-16.3-13.1-27.6-16-7.6-2-11.7-2-210.8-1.9C58.9.1 52.3.2 45.2 2zm417.1 40.9c2.1 1.3 5 4.2 6.5 6.4l2.7 4.1v405.1l-2.4 3.8c-1.3 2.1-4.2 5-6.4 6.5l-4.1 2.7H53.4l-4.1-2.7c-2.2-1.5-5.1-4.4-6.4-6.5l-2.4-3.8-.3-200.4c-.1-139 .1-201.5.8-204.3 1.3-4.7 7.7-11.4 12.2-12.7 2.1-.6 79.3-.9 204.3-.8l201 .2 3.8 2.4z"></path>
    <path d="M115.2 85.5c-7.4 2.1-13.1 5.6-18.9 11.8-9 9.5-12.7 21.7-10.6 34.2 1.5 8.6 4.6 14.9 10.6 21.2 9 9.5 20.3 14 32.7 13 10-.8 17.2-4 24.4-10.7 13.8-13 17.4-32.1 9-48.7-3.8-7.5-13.6-16.5-21.1-19.3-7.5-2.8-19-3.5-26.1-1.5zM324 194.1c-19.4 2.8-39.2 14.3-48.5 28.2l-3.5 5.2V197h-68v226h67.9l.4-65.3c.4-70.9.4-70.7 6.2-83.1 7.2-15.2 21.3-22.6 40.6-21.3 13.6.9 22.7 6.8 27.9 18.2 5.2 11.2 5.3 12.3 5.7 84.2l.4 67.3h69l-.4-76.8c-.3-49.9-.9-79-1.6-83.2-7.5-43.8-25.9-63.4-64.6-69-8.1-1.1-23.6-1.1-31.5.1zM90 310v113h70V197H90v113z"></path>
  </symbol>
</svg>